<svg width="30" height="41" viewBox="0 0 30 41" fill="none" xmlns="http://www.w3.org/2000/svg">
<path d="M15.0002 0.499023C7.01225 0.499023 0.513672 6.99762 0.513672 14.9854C0.513672 24.8986 13.4776 39.4516 14.0296 40.0662C14.548 40.6436 15.4532 40.6426 15.9708 40.0662C16.5226 39.4516 29.4866 24.8986 29.4866 14.9854C29.4864 6.99762 22.988 0.499023 15.0002 0.499023ZM15.0002 22.274C10.9812 22.274 7.71171 19.0044 7.71171 14.9854C7.71171 10.9665 10.9813 7.69698 15.0002 7.69698C19.019 7.69698 22.2886 10.9666 22.2886 14.9855C22.2886 19.0044 19.019 22.274 15.0002 22.274Z" fill="black"/>
</svg>
