<svg width="36" height="37" viewBox="0 0 36 37" fill="none" xmlns="http://www.w3.org/2000/svg">
<path d="M28 36.5006C24.6926 36.4976 21.4366 35.6802 18.52 34.1206L17.62 33.6206C11.4015 30.2772 6.30338 25.179 2.96 18.9606L2.46 18.0606C0.859641 15.1274 0.0142612 11.8419 1.24351e-06 8.50054V7.16054C-0.000838757 6.09446 0.423921 5.07213 1.18 4.32053L4.56 0.940535C4.88826 0.609735 5.35162 0.450295 5.81392 0.509055C6.27622 0.567815 6.68496 0.838135 6.92 1.24054L11.42 8.96054C11.8751 9.74632 11.7437 10.7401 11.1 11.3805L7.32 15.1606C7.00608 15.471 6.93294 15.9506 7.14 16.3406L7.84 17.6606C10.3541 22.3174 14.1786 26.135 18.84 28.6406L20.16 29.3606C20.55 29.5676 21.0296 29.4944 21.34 29.1806L25.12 25.4006C25.7604 24.757 26.7542 24.6256 27.54 25.0806L35.26 29.5806C35.6624 29.8156 35.9328 30.2244 35.9914 30.6866C36.0502 31.149 35.8908 31.6124 35.56 31.9406L32.18 35.3206C31.4284 36.0766 30.406 36.5014 29.34 36.5006H28Z" fill="black"/>
</svg>
