<svg width="131" height="40" viewBox="0 0 131 40" fill="none" xmlns="http://www.w3.org/2000/svg">
<path d="M15.7929 8.5957V8.59675C15.776 8.62583 12.2955 14.6297 7.95067 21.96C3.59532 29.3081 0 35.1911 0 35.1911L12.3315 35.137L12.3323 35.1369L12.3297 35.1464C18.3172 35.0304 23.7182 31.0939 25.3119 25.1458C25.8102 23.2864 25.8853 21.4147 25.5964 19.626C24.8043 14.3587 20.9149 10.075 15.7929 8.5957Z" fill="black"/>
<path d="M22.6078 4.80957V4.81061C22.591 4.83969 19.1104 10.8435 14.7656 18.1739C10.4103 25.522 6.81494 31.4049 6.81494 31.4049L19.1464 31.3509L19.1472 31.3507L19.1446 31.3603C25.1321 31.2443 30.5331 27.3078 32.1269 21.3597C32.6251 19.5003 32.7003 17.6286 32.4113 15.8398C31.6192 10.5726 27.7299 6.28883 22.6078 4.80957Z" fill="#10F2C5"/>
<path d="M48.6481 29H42.1855V10.7696H48.7015C50.5352 10.7696 52.1137 11.1346 53.4371 11.8645C54.7605 12.5885 55.7782 13.63 56.4903 14.989C57.2084 16.3479 57.5674 17.974 57.5674 19.867C57.5674 21.766 57.2084 23.398 56.4903 24.7629C55.7782 26.1278 54.7545 27.1752 53.4193 27.9051C52.09 28.635 50.4996 29 48.6481 29ZM46.0399 25.6975H48.4878C49.6272 25.6975 50.5856 25.4958 51.363 25.0922C52.1464 24.6828 52.7339 24.0507 53.1255 23.1962C53.5231 22.3357 53.7219 21.226 53.7219 19.867C53.7219 18.5199 53.5231 17.4191 53.1255 16.5645C52.7339 15.71 52.1493 15.081 51.3719 14.6774C50.5945 14.2739 49.6361 14.0721 48.4967 14.0721H46.0399V25.6975ZM65.3896 29.2225C64.3511 29.2225 63.4105 28.9555 62.5678 28.4214C61.7311 27.8814 61.0665 27.0891 60.5739 26.0447C60.0873 24.9943 59.844 23.7066 59.844 22.1814C59.844 20.6147 60.0962 19.3122 60.6006 18.2736C61.105 17.2292 61.7756 16.4488 62.6124 15.9325C63.455 15.4103 64.3778 15.1492 65.3807 15.1492C66.1463 15.1492 66.7842 15.2798 67.2946 15.5409C67.8109 15.796 68.2263 16.1165 68.5408 16.5022C68.8612 16.882 69.1045 17.2559 69.2707 17.6238H69.3864V10.7696H73.1696V29H69.4309V26.8102H69.2707C69.0927 27.19 68.8405 27.5669 68.5141 27.9407C68.1936 28.3086 67.7753 28.6143 67.259 28.8576C66.7486 29.1009 66.1255 29.2225 65.3896 29.2225ZM66.5913 26.2049C67.2026 26.2049 67.7189 26.0388 68.1402 25.7064C68.5675 25.3682 68.8939 24.8964 69.1194 24.2911C69.3508 23.6858 69.4665 22.9766 69.4665 22.1636C69.4665 21.3506 69.3538 20.6444 69.1283 20.0451C68.9028 19.4457 68.5764 18.9828 68.1491 18.6564C67.7218 18.33 67.2026 18.1668 66.5913 18.1668C65.9682 18.1668 65.443 18.336 65.0158 18.6742C64.5885 19.0125 64.2651 19.4813 64.0455 20.0807C63.8259 20.68 63.7161 21.3743 63.7161 22.1636C63.7161 22.9588 63.8259 23.662 64.0455 24.2733C64.271 24.8786 64.5944 25.3533 65.0158 25.6975C65.443 26.0358 65.9682 26.2049 66.5913 26.2049ZM87.6635 19.2261L84.1919 19.4397C84.1326 19.143 84.005 18.876 83.8091 18.6386C83.6133 18.3953 83.3552 18.2024 83.0347 18.06C82.7202 17.9116 82.3434 17.8375 81.9042 17.8375C81.3167 17.8375 80.8212 17.9621 80.4177 18.2113C80.0141 18.4546 79.8124 18.781 79.8124 19.1905C79.8124 19.5169 79.9429 19.7928 80.204 20.0183C80.4651 20.2439 80.9132 20.4248 81.5482 20.5613L84.0228 21.0598C85.3521 21.3328 86.3431 21.7719 86.9959 22.3773C87.6487 22.9826 87.9751 23.7778 87.9751 24.7629C87.9751 25.659 87.711 26.4453 87.1828 27.1218C86.6606 27.7983 85.9426 28.3265 85.0287 28.7062C84.1207 29.0801 83.0733 29.267 81.8864 29.267C80.0764 29.267 78.6344 28.8902 77.5603 28.1366C76.4921 27.377 75.866 26.3444 75.682 25.0388L79.4118 24.843C79.5245 25.3949 79.7975 25.8162 80.2307 26.107C80.6639 26.3918 81.2188 26.5343 81.8953 26.5343C82.56 26.5343 83.0941 26.4067 83.4976 26.1515C83.9071 25.8904 84.1148 25.5551 84.1207 25.1456C84.1148 24.8014 83.9694 24.5196 83.6845 24.3C83.3997 24.0745 82.9605 23.9024 82.3671 23.7837L79.9993 23.3119C78.6641 23.0449 77.6701 22.582 77.0173 21.9233C76.3704 21.2646 76.047 20.4248 76.047 19.4041C76.047 18.5259 76.2844 17.7692 76.7591 17.1342C77.2398 16.4993 77.9134 16.0097 78.7798 15.6655C79.6521 15.3213 80.6728 15.1492 81.8419 15.1492C83.5688 15.1492 84.9278 15.5142 85.9188 16.2441C86.9158 16.974 87.4974 17.968 87.6635 19.2261ZM96.5228 34.4121C95.2944 34.4121 94.241 34.243 93.3627 33.9047C92.4904 33.5724 91.7961 33.1184 91.2798 32.5428C90.7635 31.9672 90.4282 31.3203 90.2739 30.6023L93.7811 30.1305C93.8879 30.4035 94.057 30.6587 94.2885 30.896C94.5199 31.1334 94.8255 31.3233 95.2053 31.4657C95.5911 31.6141 96.0599 31.6883 96.6118 31.6883C97.4367 31.6883 98.1162 31.4865 98.6502 31.083C99.1903 30.6854 99.4603 30.0177 99.4603 29.0801V26.5788H99.3001C99.1339 26.9586 98.8847 27.3176 98.5523 27.6559C98.22 27.9941 97.7927 28.2701 97.2705 28.4837C96.7483 28.6973 96.1252 28.8042 95.4012 28.8042C94.3745 28.8042 93.4399 28.5668 92.5972 28.092C91.7605 27.6114 91.0928 26.8785 90.5943 25.8934C90.1018 24.9023 89.8555 23.6502 89.8555 22.1369C89.8555 20.588 90.1077 19.2944 90.6122 18.2558C91.1166 17.2173 91.7872 16.4399 92.6239 15.9236C93.4666 15.4073 94.3894 15.1492 95.3923 15.1492C96.1578 15.1492 96.7987 15.2798 97.315 15.5409C97.8313 15.796 98.2467 16.1165 98.5612 16.5022C98.8817 16.882 99.128 17.2559 99.3001 17.6238H99.4425V15.3272H103.208V29.1335C103.208 30.2967 102.923 31.2699 102.353 32.0532C101.784 32.8366 100.994 33.4241 99.9855 33.8157C98.9826 34.2133 97.8283 34.4121 96.5228 34.4121ZM96.6029 25.9557C97.2141 25.9557 97.7304 25.8043 98.1518 25.5017C98.579 25.1931 98.9054 24.754 99.1309 24.1843C99.3624 23.6086 99.4781 22.9202 99.4781 22.1191C99.4781 21.318 99.3653 20.6237 99.1398 20.0361C98.9143 19.4427 98.5879 18.9828 98.1607 18.6564C97.7334 18.33 97.2141 18.1668 96.6029 18.1668C95.9798 18.1668 95.4546 18.336 95.0273 18.6742C94.6 19.0065 94.2766 19.4694 94.057 20.0629C93.8375 20.6563 93.7277 21.3417 93.7277 22.1191C93.7277 22.9084 93.8375 23.5908 94.057 24.1665C94.2826 24.7362 94.606 25.1783 95.0273 25.4928C95.4546 25.8014 95.9798 25.9557 96.6029 25.9557ZM110.018 21.0954V29H106.225V15.3272H109.839V17.7396H110C110.302 16.9443 110.81 16.3153 111.522 15.8524C112.234 15.3836 113.097 15.1492 114.112 15.1492C115.062 15.1492 115.89 15.3569 116.596 15.7723C117.302 16.1877 117.851 16.7812 118.243 17.5526C118.634 18.3182 118.83 19.232 118.83 20.2943V29H115.038V20.9708C115.044 20.1341 114.83 19.4813 114.397 19.0125C113.964 18.5377 113.367 18.3003 112.608 18.3003C112.097 18.3003 111.646 18.4101 111.255 18.6297C110.869 18.8493 110.566 19.1697 110.347 19.5911C110.133 20.0065 110.023 20.5079 110.018 21.0954ZM121.819 29V15.3272H125.495V17.7128H125.637C125.887 16.8642 126.305 16.2233 126.893 15.7901C127.48 15.351 128.157 15.1314 128.922 15.1314C129.112 15.1314 129.317 15.1433 129.536 15.167C129.756 15.1907 129.949 15.2234 130.115 15.2649V18.6297C129.937 18.5763 129.691 18.5288 129.376 18.4873C129.062 18.4457 128.774 18.425 128.513 18.425C127.955 18.425 127.456 18.5466 127.017 18.7899C126.584 19.0273 126.24 19.3596 125.985 19.7869C125.735 20.2142 125.611 20.7067 125.611 21.2646V29H121.819Z" fill="black"/>
</svg>
