<svg width="40" height="41" viewBox="0 0 40 41" fill="none" xmlns="http://www.w3.org/2000/svg">
<path fill-rule="evenodd" clip-rule="evenodd" d="M32 0.5H8C3.58172 0.5 0 4.08172 0 8.5V39.5C0 40.0522 0.44772 40.5 1 40.5C1.26424 40.4984 1.51666 40.3902 1.7 40.2L7.7 34.2C8.84866 33.0816 10.3971 32.4694 12 32.5H32C36.4182 32.5 40 28.9182 40 24.5V8.5C40 4.08172 36.4182 0.5 32 0.5ZM24 21.5C24 22.0522 23.5522 22.5 23 22.5H9C8.44772 22.5 8 22.0522 8 21.5V19.5C8 18.9478 8.44772 18.5 9 18.5H23C23.5522 18.5 24 18.9478 24 19.5V21.5ZM31 14.5C31.5522 14.5 32 14.0523 32 13.5V11.5C32 10.9477 31.5522 10.5 31 10.5H9C8.44772 10.5 8 10.9477 8 11.5V13.5C8 14.0523 8.44772 14.5 9 14.5H31Z" fill="black"/>
</svg>
