<svg width="24" height="25" viewBox="0 0 24 25" fill="none" xmlns="http://www.w3.org/2000/svg">
<path d="M16.5 6.70508H13.5C12.9477 6.70508 12.5 7.1528 12.5 7.70508V10.7051H16.5C16.6137 10.7026 16.7216 10.7555 16.7892 10.847C16.8568 10.9385 16.8758 11.0571 16.84 11.1651L16.1 13.3651C16.0318 13.567 15.8431 13.7035 15.63 13.7051H12.5V21.2051C12.5 21.4812 12.2761 21.7051 12 21.7051H9.5C9.22386 21.7051 9 21.4812 9 21.2051V13.7051H7.5C7.22386 13.7051 7 13.4812 7 13.2051V11.2051C7 10.929 7.22386 10.7051 7.5 10.7051H9V7.70508C9 5.49594 10.7909 3.70508 13 3.70508H16.5C16.7761 3.70508 17 3.92894 17 4.20508V6.20508C17 6.48122 16.7761 6.70508 16.5 6.70508Z" fill="black"/>
</svg>
