<svg width="24" height="25" viewBox="0 0 24 25" fill="none" xmlns="http://www.w3.org/2000/svg">
<path fill-rule="evenodd" clip-rule="evenodd" d="M16 3.70508H8C5.23858 3.70508 3 5.94366 3 8.70508V16.7051C3 19.4665 5.23858 21.7051 8 21.7051H16C18.7614 21.7051 21 19.4665 21 16.7051V8.70508C21 5.94366 18.7614 3.70508 16 3.70508ZM19.25 16.7051C19.2445 18.4977 17.7926 19.9496 16 19.9551H8C6.20735 19.9496 4.75549 18.4977 4.75 16.7051V8.70508C4.75549 6.91243 6.20735 5.46057 8 5.45508H16C17.7926 5.46057 19.2445 6.91243 19.25 8.70508V16.7051ZM16.75 8.95508C17.3023 8.95508 17.75 8.50736 17.75 7.95508C17.75 7.4028 17.3023 6.95508 16.75 6.95508C16.1977 6.95508 15.75 7.4028 15.75 7.95508C15.75 8.50736 16.1977 8.95508 16.75 8.95508ZM12 8.20508C9.51472 8.20508 7.5 10.2198 7.5 12.7051C7.5 15.1904 9.51472 17.2051 12 17.2051C14.4853 17.2051 16.5 15.1904 16.5 12.7051C16.5027 11.5108 16.0294 10.3646 15.1849 9.52016C14.3404 8.67567 13.1943 8.20242 12 8.20508ZM9.25 12.7051C9.25 14.2239 10.4812 15.4551 12 15.4551C13.5188 15.4551 14.75 14.2239 14.75 12.7051C14.75 11.1863 13.5188 9.95508 12 9.95508C10.4812 9.95508 9.25 11.1863 9.25 12.7051Z" fill="black"/>
</svg>
