<svg width="24" height="25" viewBox="0 0 24 25" fill="none" xmlns="http://www.w3.org/2000/svg">
<path fill-rule="evenodd" clip-rule="evenodd" d="M5 3.70508H19C20.1046 3.70508 21 4.60051 21 5.70508V19.7051C21 20.8097 20.1046 21.7051 19 21.7051H5C3.89543 21.7051 3 20.8097 3 19.7051V5.70508C3 4.60051 3.89543 3.70508 5 3.70508ZM8 18.7051C8.27614 18.7051 8.5 18.4812 8.5 18.2051V11.2051C8.5 10.929 8.27614 10.7051 8 10.7051H6.5C6.22386 10.7051 6 10.929 6 11.2051V18.2051C6 18.4812 6.22386 18.7051 6.5 18.7051H8ZM7.25 9.70508C6.42157 9.70508 5.75 9.03351 5.75 8.20508C5.75 7.37665 6.42157 6.70508 7.25 6.70508C8.07843 6.70508 8.75 7.37665 8.75 8.20508C8.75 9.03351 8.07843 9.70508 7.25 9.70508ZM17.5 18.7051C17.7761 18.7051 18 18.4812 18 18.2051V13.6051C18.0325 12.0159 16.8576 10.6596 15.28 10.4651C14.177 10.3643 13.1083 10.8795 12.5 11.8051V11.2051C12.5 10.929 12.2761 10.7051 12 10.7051H10.5C10.2239 10.7051 10 10.929 10 11.2051V18.2051C10 18.4812 10.2239 18.7051 10.5 18.7051H12C12.2761 18.7051 12.5 18.4812 12.5 18.2051V14.4551C12.5 13.6267 13.1716 12.9551 14 12.9551C14.8284 12.9551 15.5 13.6267 15.5 14.4551V18.2051C15.5 18.4812 15.7239 18.7051 16 18.7051H17.5Z" fill="black"/>
</svg>
