<svg width="24" height="25" viewBox="0 0 24 25" fill="none" xmlns="http://www.w3.org/2000/svg">
<path d="M20.9727 7.42248C20.5083 8.042 19.9469 8.58241 19.3102 9.02284C19.3102 9.18467 19.3102 9.3465 19.3102 9.51733C19.3153 12.4562 18.1414 15.2742 16.0517 17.3396C13.9619 19.405 11.1311 20.545 8.19393 20.504C6.49587 20.5097 4.81955 20.122 3.2963 19.3712C3.21416 19.3353 3.16119 19.2541 3.1615 19.1644V19.0655C3.1615 18.9364 3.26611 18.8318 3.39515 18.8318C5.0643 18.7767 6.6739 18.198 7.99622 17.1775C6.48541 17.147 5.12607 16.252 4.50048 14.8758C4.46889 14.8007 4.47872 14.7144 4.52645 14.6483C4.57417 14.5822 4.65288 14.5458 4.73413 14.5522C5.1933 14.5983 5.65706 14.5556 6.10008 14.4263C4.43227 14.0801 3.17909 12.6955 2.99974 11.0008C2.99337 10.9195 3.0298 10.8408 3.09588 10.793C3.16195 10.7453 3.24812 10.7354 3.32326 10.7671C3.77082 10.9646 4.25397 11.0686 4.74312 11.0727C3.28172 10.1135 2.65049 8.28913 3.20643 6.6313C3.26382 6.47021 3.40169 6.3512 3.56938 6.31802C3.73706 6.28483 3.90984 6.34236 4.0242 6.46947C5.99627 8.56833 8.70592 9.81904 11.5818 9.95787C11.5082 9.66393 11.472 9.36184 11.474 9.0588C11.5009 7.4698 12.4841 6.05429 13.9633 5.47495C15.4424 4.89562 17.1248 5.26711 18.2229 6.41552C18.9713 6.27293 19.6949 6.02153 20.3706 5.66929C20.4201 5.63839 20.4829 5.63839 20.5324 5.66929C20.5633 5.71881 20.5633 5.7816 20.5324 5.83112C20.2051 6.5806 19.6522 7.2092 18.9508 7.62927C19.565 7.55804 20.1684 7.41315 20.7481 7.19772C20.7969 7.1645 20.861 7.1645 20.9098 7.19772C20.9507 7.21642 20.9813 7.25219 20.9934 7.2955C21.0055 7.33881 20.9979 7.38526 20.9727 7.42248Z" fill="black"/>
</svg>
