<svg width="120" height="49" viewBox="0 0 120 49" fill="none" xmlns="http://www.w3.org/2000/svg">
<path d="M39.8036 21.4536C39.8036 19.4064 37.8185 17.2347 34.3769 17.2347C30.5105 17.2347 26.2697 20.0652 25.6133 25.7212C24.9508 31.4395 28.511 33.9663 32.0881 33.9663C35.664 33.9663 37.5465 32.5729 39.4583 30.7051C37.8076 28.6261 35.6786 29.5936 35.276 29.7962C34.8307 30.0194 34.2463 30.3281 33.0592 30.3281C31.6733 30.3281 30.2677 29.701 30.2677 27.1279C39.1276 26.2788 39.8036 23.502 39.8036 21.4536ZM35.4127 21.7964C35.3553 22.4272 35.0966 23.5191 30.6131 24.1194C31.5586 20.7618 33.3618 20.5129 34.195 20.5129C34.9759 20.5129 35.4736 21.118 35.4127 21.7964ZM20.4062 22.3417C20.4062 22.3417 18.5006 28.3175 18.3529 28.8189C18.3017 28.3175 16.9072 17.5837 16.9072 17.5837C13.6618 17.5837 11.9257 19.8895 11.0107 22.3393C11.0107 22.3393 8.69265 28.3321 8.50478 28.8336C8.49382 28.3638 8.14853 22.4016 8.14853 22.4016C7.9521 19.4051 5.2168 17.5909 3 17.5909L5.66578 33.8528C9.07088 33.8418 10.8936 31.5396 11.855 29.0947C11.855 29.0947 13.8937 23.807 13.9779 23.5667C13.9986 23.7961 15.4444 33.8528 15.4444 33.8528C18.8519 33.8528 20.6905 31.697 21.68 29.3399L26.4613 17.5909C23.094 17.5909 21.3212 19.8907 20.4062 22.3417ZM52.3186 17.2127C50.2239 17.2127 48.6097 18.351 47.2507 20.0334L47.2531 20.0212L48.461 10.25C45.6719 10.25 43.3929 12.6779 42.9598 16.2794L40.8382 33.7259C42.4474 33.7259 44.1518 33.2586 45.0716 32.0764C45.8952 33.1341 47.1189 33.9772 48.9306 33.9772C53.6339 33.9772 56.867 28.5103 56.867 23.3776C56.867 18.6939 54.5879 17.2127 52.3186 17.2127ZM51.8868 25.5944C51.3988 28.4639 49.8042 30.3988 48.2596 30.3988C46.7029 30.3988 46.0453 29.7108 46.0453 29.7108C46.3356 27.2024 46.5284 25.6639 47.0957 24.339C47.6618 23.014 49.0002 20.8997 50.4007 20.8997C51.7623 20.8997 52.3748 22.7261 51.8868 25.5944ZM68.6574 17.5922H65.3645L65.3803 17.4201C65.6048 15.2704 66.1197 14.1419 67.7863 13.9687C68.9245 13.8516 69.4394 13.2598 69.559 12.6205C69.6529 12.1191 69.9713 10.3464 69.9713 10.3464C63.3661 10.3086 61.2957 13.1598 60.7674 17.4934L60.7552 17.5909L60.6905 17.5934C59.6181 17.5934 58.4408 18.8074 58.2346 20.3494L58.1627 20.9167H60.3587L58.5152 36.1782L57.9565 38.9208L58.1833 38.9281C61.2664 38.811 63.2502 36.3795 63.6882 32.8389L65.1278 20.9167H66.16C67.1702 20.9167 68.3572 19.9042 68.5769 18.2119L68.6574 17.5922ZM85.7453 17.3092C81.951 17.3092 78.375 20.1018 77.2755 24.4951C76.1775 28.8873 77.847 34.0736 83.4232 34.0736C89.0018 34.0736 92.2065 28.6676 92.2065 24.1792C92.2065 19.6882 89.1712 17.3092 85.7453 17.3092ZM87.2835 25.4638C87.087 27.4561 86.2088 30.466 83.808 30.466C81.3968 30.466 81.7395 26.934 81.9727 25.2577C82.2233 23.4605 83.2327 20.9167 85.3815 20.9167C87.3225 20.9167 87.5055 23.214 87.2835 25.4638ZM110.944 22.3417C110.944 22.3417 109.038 28.3175 108.892 28.8189C108.839 28.3175 107.445 17.5837 107.445 17.5837C104.2 17.5837 102.464 19.8895 101.548 22.3393C101.548 22.3393 99.2318 28.3321 99.0435 28.8336C99.0322 28.3638 98.6872 22.4016 98.6872 22.4016C98.4907 19.4051 95.754 17.5909 93.5385 17.5909L96.2032 33.8528C99.6082 33.8418 101.432 31.5396 102.394 29.0947C102.394 29.0947 104.432 23.807 104.516 23.5667C104.537 23.7961 105.982 33.8528 105.982 33.8528C109.39 33.8528 111.228 31.697 112.217 29.3399L117 17.5909C113.632 17.5909 111.859 19.8907 110.944 22.3417ZM71.7563 10.3464L68.9917 32.6437L68.9843 32.6401L68.4231 35.3974L68.6488 35.4046C71.6257 35.368 73.7376 32.756 74.1353 29.4618L75.732 16.6637C76.2165 12.7657 73.8926 10.3464 71.7563 10.3464Z" fill="black"/>
</svg>
