<svg width="131" height="41" viewBox="0 0 131 41" fill="none" xmlns="http://www.w3.org/2000/svg">
<path d="M15.7929 9.30029V9.30134C15.776 9.33042 12.2955 15.3343 7.95067 22.6646C3.59532 30.0127 0 35.8957 0 35.8957L12.3315 35.8416L12.3323 35.8414L12.3297 35.851C18.3172 35.735 23.7182 31.7985 25.3119 25.8504C25.8102 23.991 25.8853 22.1193 25.5964 20.3306C24.8043 15.0633 20.9149 10.7796 15.7929 9.30029Z" fill="black"/>
<path d="M22.6078 5.5144V5.51545C22.591 5.54453 19.1104 11.5484 14.7656 18.8787C10.4103 26.2268 6.81494 32.1098 6.81494 32.1098L19.1464 32.0557L19.1472 32.0556L19.1446 32.0651C25.1321 31.9492 30.5331 28.0126 32.1269 22.0645C32.6251 20.2051 32.7003 18.3334 32.4113 16.5447C31.6192 11.2774 27.7299 6.99367 22.6078 5.5144Z" fill="#10F2C5"/>
<path d="M48.6481 29.7051H42.1855V11.4747H48.7015C50.5352 11.4747 52.1137 11.8397 53.4371 12.5696C54.7605 13.2936 55.7782 14.3351 56.4903 15.6941C57.2084 17.053 57.5674 18.679 57.5674 20.5721C57.5674 22.4711 57.2084 24.103 56.4903 25.4679C55.7782 26.8328 54.7545 27.8803 53.4193 28.6102C52.09 29.3401 50.4996 29.7051 48.6481 29.7051ZM46.0399 26.4026H48.4878C49.6272 26.4026 50.5856 26.2008 51.363 25.7973C52.1464 25.3878 52.7339 24.7558 53.1255 23.9013C53.5231 23.0408 53.7219 21.9311 53.7219 20.5721C53.7219 19.225 53.5231 18.1242 53.1255 17.2696C52.7339 16.4151 52.1493 15.786 51.3719 15.3825C50.5945 14.979 49.6361 14.7772 48.4967 14.7772H46.0399V26.4026ZM65.3896 29.9276C64.3511 29.9276 63.4105 29.6606 62.5678 29.1265C61.7311 28.5865 61.0665 27.7942 60.5739 26.7498C60.0873 25.6994 59.844 24.4116 59.844 22.8865C59.844 21.3198 60.0962 20.0172 60.6006 18.9787C61.105 17.9343 61.7756 17.1539 62.6124 16.6376C63.455 16.1154 64.3778 15.8543 65.3807 15.8543C66.1463 15.8543 66.7842 15.9848 67.2946 16.246C67.8109 16.5011 68.2263 16.8216 68.5408 17.2073C68.8612 17.5871 69.1045 17.961 69.2707 18.3289H69.3864V11.4747H73.1696V29.7051H69.4309V27.5153H69.2707C69.0927 27.8951 68.8405 28.2719 68.5141 28.6458C68.1936 29.0137 67.7753 29.3193 67.259 29.5627C66.7486 29.806 66.1255 29.9276 65.3896 29.9276ZM66.5913 26.91C67.2026 26.91 67.7189 26.7438 68.1402 26.4115C68.5675 26.0732 68.8939 25.6015 69.1194 24.9962C69.3508 24.3909 69.4665 23.6817 69.4665 22.8687C69.4665 22.0557 69.3538 21.3495 69.1283 20.7501C68.9028 20.1508 68.5764 19.6879 68.1491 19.3615C67.7218 19.0351 67.2026 18.8719 66.5913 18.8719C65.9682 18.8719 65.443 19.041 65.0158 19.3793C64.5885 19.7176 64.2651 20.1864 64.0455 20.7857C63.8259 21.3851 63.7161 22.0794 63.7161 22.8687C63.7161 23.6639 63.8259 24.3671 64.0455 24.9784C64.271 25.5837 64.5944 26.0584 65.0158 26.4026C65.443 26.7409 65.9682 26.91 66.5913 26.91ZM87.6635 19.9312L84.1919 20.1448C84.1326 19.8481 84.005 19.5811 83.8091 19.3437C83.6133 19.1004 83.3552 18.9075 83.0347 18.7651C82.7202 18.6167 82.3434 18.5425 81.9042 18.5425C81.3167 18.5425 80.8212 18.6672 80.4177 18.9164C80.0141 19.1597 79.8124 19.4861 79.8124 19.8956C79.8124 20.222 79.9429 20.4979 80.204 20.7234C80.4651 20.9489 80.9132 21.1299 81.5482 21.2664L84.0228 21.7649C85.3521 22.0379 86.3431 22.477 86.9959 23.0823C87.6487 23.6876 87.9751 24.4828 87.9751 25.4679C87.9751 26.364 87.711 27.1503 87.1828 27.8269C86.6606 28.5034 85.9426 29.0315 85.0287 29.4113C84.1207 29.7852 83.0733 29.9721 81.8864 29.9721C80.0764 29.9721 78.6344 29.5953 77.5603 28.8416C76.4921 28.082 75.866 27.0495 75.682 25.7439L79.4118 25.5481C79.5245 26.1 79.7975 26.5213 80.2307 26.8121C80.6639 27.0969 81.2188 27.2394 81.8953 27.2394C82.56 27.2394 83.0941 27.1118 83.4976 26.8566C83.9071 26.5955 84.1148 26.2602 84.1207 25.8507C84.1148 25.5065 83.9694 25.2246 83.6845 25.0051C83.3997 24.7796 82.9605 24.6075 82.3671 24.4888L79.9993 24.017C78.6641 23.7499 77.6701 23.2871 77.0173 22.6284C76.3704 21.9696 76.047 21.1299 76.047 20.1092C76.047 19.2309 76.2844 18.4743 76.7591 17.8393C77.2398 17.2043 77.9134 16.7148 78.7798 16.3706C79.6521 16.0264 80.6728 15.8543 81.8419 15.8543C83.5688 15.8543 84.9278 16.2192 85.9188 16.9492C86.9158 17.6791 87.4974 18.6731 87.6635 19.9312ZM96.5228 35.1172C95.2944 35.1172 94.241 34.9481 93.3627 34.6098C92.4904 34.2775 91.7961 33.8235 91.2798 33.2479C90.7635 32.6723 90.4282 32.0254 90.2739 31.3074L93.7811 30.8356C93.8879 31.1086 94.057 31.3637 94.2885 31.6011C94.5199 31.8385 94.8255 32.0284 95.2053 32.1708C95.5911 32.3192 96.0599 32.3933 96.6118 32.3933C97.4367 32.3933 98.1162 32.1916 98.6502 31.788C99.1903 31.3904 99.4603 30.7228 99.4603 29.7852V27.2839H99.3001C99.1339 27.6637 98.8847 28.0227 98.5523 28.3609C98.22 28.6992 97.7927 28.9752 97.2705 29.1888C96.7483 29.4024 96.1252 29.5092 95.4012 29.5092C94.3745 29.5092 93.4399 29.2719 92.5972 28.7971C91.7605 28.3164 91.0928 27.5835 90.5943 26.5984C90.1018 25.6074 89.8555 24.3553 89.8555 22.842C89.8555 21.2931 90.1077 19.9994 90.6122 18.9609C91.1166 17.9224 91.7872 17.145 92.6239 16.6287C93.4666 16.1124 94.3894 15.8543 95.3923 15.8543C96.1578 15.8543 96.7987 15.9848 97.315 16.246C97.8313 16.5011 98.2467 16.8216 98.5612 17.2073C98.8817 17.5871 99.128 17.961 99.3001 18.3289H99.4425V16.0323H103.208V29.8386C103.208 31.0017 102.923 31.975 102.353 32.7583C101.784 33.5416 100.994 34.1291 99.9855 34.5208C98.9826 34.9184 97.8283 35.1172 96.5228 35.1172ZM96.6029 26.6608C97.2141 26.6608 97.7304 26.5094 98.1518 26.2068C98.579 25.8982 98.9054 25.459 99.1309 24.8893C99.3624 24.3137 99.4781 23.6253 99.4781 22.8242C99.4781 22.023 99.3653 21.3287 99.1398 20.7412C98.9143 20.1478 98.5879 19.6879 98.1607 19.3615C97.7334 19.0351 97.2141 18.8719 96.6029 18.8719C95.9798 18.8719 95.4546 19.041 95.0273 19.3793C94.6 19.7116 94.2766 20.1745 94.057 20.7679C93.8375 21.3614 93.7277 22.0468 93.7277 22.8242C93.7277 23.6135 93.8375 24.2959 94.057 24.8715C94.2826 25.4412 94.606 25.8834 95.0273 26.1979C95.4546 26.5065 95.9798 26.6608 96.6029 26.6608ZM110.018 21.8005V29.7051H106.225V16.0323H109.839V18.4446H110C110.302 17.6494 110.81 17.0204 111.522 16.5575C112.234 16.0887 113.097 15.8543 114.112 15.8543C115.062 15.8543 115.89 16.062 116.596 16.4774C117.302 16.8928 117.851 17.4862 118.243 18.2577C118.634 19.0232 118.83 19.9371 118.83 20.9994V29.7051H115.038V21.6759C115.044 20.8391 114.83 20.1864 114.397 19.7176C113.964 19.2428 113.367 19.0054 112.608 19.0054C112.097 19.0054 111.646 19.1152 111.255 19.3348C110.869 19.5544 110.566 19.8748 110.347 20.2962C110.133 20.7116 110.023 21.213 110.018 21.8005ZM121.819 29.7051V16.0323H125.495V18.4179H125.637C125.887 17.5693 126.305 16.9284 126.893 16.4952C127.48 16.0561 128.157 15.8365 128.922 15.8365C129.112 15.8365 129.317 15.8483 129.536 15.8721C129.756 15.8958 129.949 15.9285 130.115 15.97V19.3348C129.937 19.2814 129.691 19.2339 129.376 19.1924C129.062 19.1508 128.774 19.13 128.513 19.13C127.955 19.13 127.456 19.2517 127.017 19.495C126.584 19.7324 126.24 20.0647 125.985 20.492C125.735 20.9193 125.611 21.4118 125.611 21.9696V29.7051H121.819Z" fill="black"/>
</svg>
